<svg xmlns="http://www.w3.org/2000/svg" width="1024" height="1024" viewBox="0 0 1024 1024">
  <defs>
    <radialGradient id="bg" cx="50%" cy="38%" r="70%">
      <stop offset="0%" stop-color="#7F7CFF"/>
      <stop offset="42%" stop-color="#353B90"/>
      <stop offset="100%" stop-color="#11131F"/>
    </radialGradient>
    <linearGradient id="ring" x1="0" y1="0" x2="1" y2="1">
      <stop offset="0%" stop-color="#DDE1FF"/>
      <stop offset="100%" stop-color="#8BA4FF"/>
    </linearGradient>
  </defs>
  <rect x="0" y="0" width="1024" height="1024" rx="220" fill="url(#bg)"/>
  <circle cx="512" cy="512" r="302" fill="none" stroke="url(#ring)" stroke-width="38" opacity="0.95"/>
  <path d="M512 226 C620 332 686 402 686 512 C686 622 620 692 512 798 C404 692 338 622 338 512 C338 402 404 332 512 226Z" fill="#E9EDFF" opacity="0.95"/>
  <circle cx="512" cy="512" r="96" fill="#24284D"/>
  <path d="M468 512 C468 488 488 468 512 468 C536 468 556 488 556 512 C556 536 536 556 512 556 C488 556 468 536 468 512Z" fill="#BFD0FF"/>
  <path d="M512 333 C598 421 623 464 623 512 C623 560 598 603 512 691 C426 603 401 560 401 512 C401 464 426 421 512 333Z" fill="none" stroke="#11131F" stroke-width="20" opacity="0.28"/>
  <text x="512" y="904" text-anchor="middle" font-size="84" font-family="Arial, Helvetica, sans-serif" font-weight="700" fill="#E9EDFF">SSL</text>
</svg>
